<svg width="25" height="24" viewBox="0 0 25 24" fill="none" xmlns="http://www.w3.org/2000/svg">
<path fill-rule="evenodd" clip-rule="evenodd" d="M14.2857 0C14.9432 0 15.4762 0.537258 15.4762 1.2V6C15.4762 6.66274 14.9432 7.2 14.2857 7.2C13.6282 7.2 13.0952 6.66274 13.0952 6V4.8H1.19048C0.532994 4.8 0 4.26274 0 3.6C0 2.93726 0.532994 2.4 1.19048 2.4H13.0952V1.2C13.0952 0.537258 13.6282 0 14.2857 0ZM17.8571 3.6C17.8571 2.93726 18.3901 2.4 19.0476 2.4H22.619C23.2765 2.4 23.8095 2.93726 23.8095 3.6C23.8095 4.26274 23.2765 4.8 22.619 4.8H19.0476C18.3901 4.8 17.8571 4.26274 17.8571 3.6ZM10.7143 8.4C11.3718 8.4 11.9048 8.93726 11.9048 9.6V10.8H23.8095C24.467 10.8 25 11.3373 25 12C25 12.6627 24.467 13.2 23.8095 13.2H11.9048V14.4C11.9048 15.0627 11.3718 15.6 10.7143 15.6C10.0568 15.6 9.52381 15.0627 9.52381 14.4V9.6C9.52381 8.93726 10.0568 8.4 10.7143 8.4ZM0 12C0 11.3373 0.532994 10.8 1.19048 10.8H5.95238C6.60986 10.8 7.14286 11.3373 7.14286 12C7.14286 12.6627 6.60986 13.2 5.95238 13.2H1.19048C0.532994 13.2 0 12.6627 0 12ZM14.2857 16.8C14.9432 16.8 15.4762 17.3373 15.4762 18V22.8C15.4762 23.4627 14.9432 24 14.2857 24C13.6282 24 13.0952 23.4627 13.0952 22.8V21.6H1.19048C0.532994 21.6 0 21.0627 0 20.4C0 19.7373 0.532994 19.2 1.19048 19.2H13.0952V18C13.0952 17.3373 13.6282 16.8 14.2857 16.8ZM17.8571 20.4C17.8571 19.7373 18.3901 19.2 19.0476 19.2H22.619C23.2765 19.2 23.8095 19.7373 23.8095 20.4C23.8095 21.0627 23.2765 21.6 22.619 21.6H19.0476C18.3901 21.6 17.8571 21.0627 17.8571 20.4Z" fill="#122123"/>
</svg>
