<svg width="36" height="36" viewBox="0 0 36 36" fill="none" xmlns="http://www.w3.org/2000/svg">
<rect width="36" height="36" rx="18" fill="#F9FDFD"/>
<g clip-path="url(#clip0_139_8816)">
<path d="M21.3333 11.3333H14.6666C12.8256 11.3333 11.3333 12.8256 11.3333 14.6666V21.3333C11.3333 23.1742 12.8256 24.6666 14.6666 24.6666H21.3333C23.1742 24.6666 24.6666 23.1742 24.6666 21.3333V14.6666C24.6666 12.8256 23.1742 11.3333 21.3333 11.3333Z" stroke="#122123" stroke-width="2" stroke-linecap="round" stroke-linejoin="round"/>
<path d="M20.6666 17.58C20.7488 18.1348 20.6541 18.7014 20.3957 19.1993C20.1374 19.6972 19.7287 20.1009 19.2276 20.3531C18.7266 20.6052 18.1589 20.693 17.6051 20.6039C17.0513 20.5148 16.5397 20.2533 16.1431 19.8567C15.7465 19.4601 15.485 18.9485 15.3959 18.3948C15.3068 17.841 15.3946 17.2732 15.6468 16.7722C15.8989 16.2712 16.3027 15.8625 16.8005 15.6041C17.2984 15.3458 17.8651 15.251 18.4199 15.3333C18.9858 15.4172 19.5098 15.6809 19.9143 16.0855C20.3189 16.4901 20.5826 17.014 20.6666 17.58Z" stroke="#122123" stroke-width="2" stroke-linecap="round" stroke-linejoin="round"/>
<path d="M21.6667 14.3333H21.6734" stroke="#122123" stroke-width="2" stroke-linecap="round" stroke-linejoin="round"/>
</g>
<defs>
<clipPath id="clip0_139_8816">
<rect width="16" height="16" fill="white" transform="translate(10 10)"/>
</clipPath>
</defs>
</svg>
