<svg width="11" height="15" viewBox="0 0 11 15" fill="none" xmlns="http://www.w3.org/2000/svg">
<path d="M1.6996 1.36243C2.72925 0.454145 4.11274 0 5.49888 0C6.88498 0 8.26847 0.454145 9.29815 1.36243C10.5406 2.46035 12.9192 5.78359 8.14341 12.8976C7.19357 14.3108 6.32888 15 5.49875 15C4.66863 15 3.80396 14.3134 2.8541 12.8976C-1.91909 5.78359 0.459597 2.46032 1.70471 1.36243H1.6996ZM5.49614 8.61013C6.99402 8.61013 8.21252 7.39201 8.21252 5.89063C8.21252 4.38925 6.99402 3.16314 5.49614 3.16314C3.99826 3.16314 2.78237 4.38663 2.78237 5.89063C2.78237 7.39464 4.00088 8.61013 5.49614 8.61013Z" fill="#C3DCD5"/>
</svg>
