<svg width="55" height="49" viewBox="0 0 55 49" fill="none" xmlns="http://www.w3.org/2000/svg">
<path fill-rule="evenodd" clip-rule="evenodd" d="M26.9829 49C27.4174 47.1133 27.439 45.6145 28.1137 43.0182C29.5281 37.5741 31.6113 32.3468 34.2155 27.4708C34.9443 26.1059 36.251 24.1449 36.6054 22.6386C37.8133 17.5033 33.1483 12.7677 27.9749 14.0507C24.753 14.8497 24.8098 16.3103 25.8388 16.1889C26.0737 16.1614 26.6697 15.7323 27.0158 15.5679C32.1608 13.1232 37.313 18.3882 35.2337 23.2822L32.7164 27.9772C29.7993 33.6159 27.2998 40.2481 26.2117 46.6778C25.8661 48.721 25.9304 47.9232 26.9829 49ZM33.4943 44.2941C33.6653 44.2017 34.6974 43.2991 34.7946 43.186C35.228 42.6845 35.5037 41.6009 34.2545 41.717C33.9916 42.1235 33.4811 43.8194 33.4943 44.2941ZM22.2887 3.1866C21.6946 2.65308 21.4128 2.45513 20.9563 2.66024C18.6516 3.69485 19.6436 4.61446 20.8292 3.96896L22.0973 3.34685C22.2361 3.25372 22.2214 3.25484 22.2887 3.1866ZM30.4362 5.12083C32.8317 5.32179 33.6384 5.52087 35.6792 6.30738C36.3754 6.57584 36.8107 6.57395 36.7706 5.63888C36.2238 5.13704 34.5442 4.67102 33.5858 4.45347C33.166 4.35807 32.2217 4.13072 31.7936 4.12695C31.2297 4.12205 30.656 4.66348 30.4362 5.12083ZM28.9022 8.40827C31.2773 8.33851 33.1547 8.73668 35.0056 9.56806C37.4601 10.9096 39.0342 12.0724 40.4842 14.5115C41.8601 16.8261 42.6478 19.8481 42.0817 23.1541C41.8283 24.6332 41.3688 25.8786 40.7444 27.0029C39.2709 29.6558 38.4812 31.0113 37.1882 33.861C36.9091 34.4763 36.6477 35.06 36.3883 35.6734C36.2737 35.9437 36.1281 36.2804 36.0018 36.5832C35.8059 37.0534 35.6167 37.3132 35.9681 37.6902C36.7918 38.4839 37.392 36.0965 38.0902 34.528C38.6643 33.2381 39.2789 32.0315 39.9237 30.7948C41.258 28.2362 42.7621 26.2477 43.2545 22.9011C43.9719 18.0199 42.0915 13.9225 38.9169 10.8651C37.8852 9.87158 36.8834 9.37916 35.5154 8.57342C32.7515 7.49658 30.5663 6.92461 27.0994 7.51544C26.0635 7.75146 25.2613 7.98222 24.3907 8.32684C23.9826 8.48859 23.5742 8.68577 23.1835 8.89428C22.7259 9.13898 22.3606 9.29507 22.1091 9.64535C20.4998 9.98205 17.9973 13.6582 17.1422 15.1841C16.6524 16.0577 13.502 21.7081 13.617 22.3378C13.6658 22.6062 14.1662 23.4859 14.9706 21.7635C15.9365 19.6958 18.4946 14.7136 19.6943 13.2318C20.1269 12.6971 20.5755 12.2405 20.9431 11.8744C21.2596 11.5596 22.2426 10.801 22.3084 10.6532C23.2883 10.2633 24.1135 9.61858 25.3196 9.16311C26.4318 8.74271 27.6077 8.5293 28.9022 8.40827ZM10.2178 33.7C10.6047 32.6978 10.9182 31.5697 11.296 30.5219C11.5861 29.718 12.4389 27.9127 12.3175 27.2039C11.2624 26.6036 11.085 27.7664 10.3138 30.0061C10.0619 30.7383 9.8581 31.3152 9.60168 32.0199C9.42014 32.5183 9.09604 33.2366 10.2178 33.7ZM14.4536 0.0375336C12.6401 -0.106874 12.5486 0.0872985 10.5937 2.03096C10.1822 2.44043 7.65209 4.8011 8.30183 5.44321C8.95271 6.08606 9.68225 4.68007 9.95455 4.34488L12.9207 1.3881C13.4154 0.972224 14.3454 0.385922 14.4536 0.0375336ZM26.3944 28.2803L29.3451 22.619C29.7256 21.952 30.3636 21.2983 30.052 20.5359C29.0577 20.2474 28.8406 21.2933 28.4083 22.0361L26.1361 26.3913C25.8025 27.0855 24.8434 28.3475 26.3944 28.2803ZM38.2864 39.9747C38.6484 39.796 39.797 38.7425 39.9936 38.4341L42.0227 33.9499C42.4307 33.091 43.0552 32.5138 42.5533 31.7239C41.7175 31.5817 41.7038 32.0338 41.0965 33.2762C40.3987 34.704 38.4858 38.7806 38.2864 39.9747ZM21.7694 15.8175C22.196 15.5408 22.6105 14.7829 23.2678 14.1899C25.1887 12.4566 27.5233 11.5389 30.3458 11.6972C34.2019 12.0313 37.0248 14.4391 38.2399 17.3393C38.9494 19.0318 39.2229 21.1731 38.7116 23.2068C38.2365 25.0955 37.2895 26.2733 36.5222 27.7642C34.0295 32.6058 29.6787 42.2781 29.4086 47.7531C31.2172 46.7781 30.6922 45.8234 31.6472 42.5326C33.278 36.9109 35.5063 31.6971 38.3617 26.7586C38.6068 26.3344 38.7849 26.0875 39.0118 25.6305C41.5681 20.4744 39.3984 14.1857 34.399 11.6984C33.039 11.0219 29.7955 10.085 28.0089 10.7316C25.2337 10.9273 21.8852 13.4056 21.1284 15.0801C20.3625 15.6358 16.6815 23.191 16.0227 24.7007C15.5738 25.7281 11.6334 34.868 12.1761 35.6263C12.9741 36.7412 13.5406 34.146 13.6488 33.8153C13.9616 32.8607 14.2713 31.9588 14.6257 31.0056C16.3642 26.3284 18.141 22.5821 20.4639 18.2578C20.7441 17.7356 21.7222 16.2334 21.7694 15.8175ZM27.6228 19.0526C28.3758 18.6721 30.3262 17.2612 31.8972 19.4111C33.3994 21.4672 31.2266 22.7457 31.5042 23.9244C32.2274 24.223 32.3257 24.051 32.7092 23.375C32.9637 22.9259 33.2409 22.5225 33.3899 21.9207C33.9724 19.5703 32.2455 17.2194 29.7763 17.1447C28.7408 17.1135 27.2004 17.6719 26.8327 18.4497C26.4754 18.6835 26.2704 19.114 26.0226 19.5431C24.2773 22.5715 22.8091 25.6211 21.3784 28.8685C20.6545 30.5105 17.326 39.106 17.4338 40.8038C18.0026 41.1586 17.8286 41.2156 18.3203 41.4045C18.6338 40.4799 18.8592 39.3085 19.1398 38.338C20.021 35.2896 21.1152 32.4263 22.2993 29.5453C23.452 26.7412 24.719 24.2411 26.1686 21.5716C26.5177 20.9288 27.4764 19.4402 27.6228 19.0526ZM48.3253 6.62297C47.3534 4.783 43.6232 1.89372 41.8714 0.830834C40.6271 0.0759934 40.4312 -0.157398 38.6851 0.362545C39.4445 0.906241 41.2523 1.45597 43.7325 3.46335C44.5422 4.11865 45.2362 4.70947 45.9117 5.42925C46.2452 5.7848 47.5549 7.47056 47.8749 7.65607L49.924 11.244C51.2401 13.8682 52.0706 17.3114 52.1478 20.3259C52.1712 21.2428 52.1474 22.133 52.0668 23.0319C51.9946 23.8437 51.745 24.8817 51.7302 25.6369C52.1258 25.2187 52.6001 24.2765 52.8992 23.6371C53.7532 21.8114 53.0044 17.0196 52.5177 15.1524C52.0884 13.5048 51.4924 11.8854 50.7901 10.5001C50.2488 9.43307 48.9826 7.20023 48.3253 6.62297ZM15.8098 13.2054C17.1936 10.2279 20.5388 7.57274 23.6302 6.28816C24.1018 6.09247 24.7897 5.93035 25.1842 5.66943C24.9977 5.34895 24.5855 4.99151 24.3238 4.86784C22.5689 5.39834 20.6526 6.42728 19.282 7.49846C18.279 8.28196 16.18 10.1872 15.5295 11.5573C14.8915 12.2183 13.5183 14.9108 13.0448 15.8191C12.2502 17.3423 11.4428 18.8535 10.7601 20.3922C9.34868 23.5722 7.81924 26.7808 6.79244 30.1433C6.91838 30.3115 7.00915 30.4419 7.1487 30.6018C7.42252 30.9151 7.33628 30.8454 7.60215 30.9762L9.40088 26.262C10.0631 24.6411 10.6807 23.2826 11.369 21.722C11.9488 20.4069 15.0795 13.9323 15.8098 13.2054ZM21.122 43.9231C21.3648 43.3817 21.7309 41.3694 21.9313 40.6293C22.232 39.5189 22.5436 38.4888 22.8636 37.4398L24.4962 32.9131C24.6861 32.4222 24.6517 31.4773 23.7969 31.9501C23.1411 32.3128 21.013 39.6561 20.6163 41.2378C20.2389 42.7437 19.8111 43.3183 21.122 43.9231ZM0.961006 20.5845L1.07635 20.4529C1.2212 20.2452 1.09414 20.4635 1.22046 20.2286L2.48665 17.3578C3.58834 14.939 5.19493 11.8575 6.48988 9.52696C6.66763 9.2076 7.3949 8.04668 6.4165 8.03462C5.81138 8.02745 4.94796 10.0612 4.51266 10.8594C3.87388 12.0305 3.44236 12.9139 2.88262 13.9832C2.31344 15.0714 1.89555 16.0702 1.34943 17.1825C0.777973 18.346 0.170951 19.2004 0.961006 20.5845ZM45.5391 8.45125C45.1069 7.31372 42.0253 4.78866 40.5821 3.88187C39.7539 3.36118 38.4756 2.67193 37.4578 2.2651C35.5044 1.48462 35.7692 1.29686 34.0616 2.24965C36.0948 3.46825 38.7274 2.61349 44.4034 8.70463C44.605 8.92105 44.4794 8.83735 44.6663 8.95687L45.5391 8.45125ZM44.6905 8.9727L44.74 9.00475L46.3474 11.4978C49.2739 16.8684 49.7439 22.8373 47.3023 28.5774C46.5697 30.2998 44.8368 32.8705 44.3917 34.1573C45.0032 33.7739 46.1163 32.4237 46.5486 31.9637C47.331 31.1308 47.7077 30.3688 48.2463 29.1671C50.8324 23.398 50.4576 16.4932 47.3685 11.066C47.0266 10.4654 45.9805 8.72725 45.5391 8.45125L44.6905 8.9727ZM0 14.6713C0.364204 14.3595 1.62513 11.6478 1.86869 11.1769C3.02938 8.9301 4.42832 6.34359 5.80685 4.35129C6.16084 3.83926 6.58973 3.26955 6.97322 2.79032C7.36201 2.30507 7.98112 1.69237 8.22393 1.26104C5.56822 1.8217 4.24225 4.60278 2.95903 6.82959C2.28508 7.99881 1.71211 9.03907 1.07031 10.2803C0.124812 12.1082 0.00378197 12.1142 0 14.6713ZM7.94896 11.5275C7.12524 12.2696 3.14926 21.1003 2.3229 23.2268C2.04152 23.9511 2.43219 24.3489 2.75555 24.9235L8.30333 12.9309C8.61951 12.6598 9.9364 10.1299 10.3407 9.45797C11.6156 7.34049 12.4291 6.46122 14.0213 4.85803C15.0791 3.79326 16.6339 2.5543 17.9591 1.80964C18.6712 1.40922 18.6202 1.54043 18.7892 1.13284C17.613 0.772768 17.9818 0.187976 15.3253 2.24814C13.1787 3.91279 11.3807 5.82929 9.94207 8.00709C9.5703 8.56927 8.04048 11.0325 7.94896 11.5275ZM54.9616 15.4288C55.0743 13.4987 54.9653 11.8224 54.2812 10.2072C53.2154 7.69189 51.495 5.09218 49.7572 3.12741C48.8994 2.15803 47.3273 1.24822 45.9756 0.933011C46.3307 1.50536 49.0121 3.32309 51.4008 7.16516C52.8123 9.43533 53.8081 11.5935 54.5232 14.2174C54.6749 14.7735 54.6382 14.9013 54.9018 15.344C54.9151 15.3659 54.94 15.4017 54.9616 15.4288ZM23.9683 46.4338C24.0681 46.2725 25.1275 41.3845 25.3532 40.6025C26.5707 36.38 28.5358 31.3008 30.5134 27.4512C30.6972 27.0938 30.9914 26.6097 31.1313 26.2696C31.353 25.7304 31.1325 25.0069 30.4555 25.3616C29.7464 25.7334 26.3589 34.0834 25.899 35.3654C24.8223 38.3659 24.0628 40.7039 23.3998 43.8809C23.0527 45.5451 22.7399 45.5987 23.9683 46.4338ZM14.696 38.183C14.9577 38.4401 15.1748 38.7418 15.5496 38.8888L17.3963 33.0514C18.7212 29.4401 20.2801 25.7311 22.0391 22.3174C22.4733 21.4743 22.9585 20.5087 23.3942 19.755C23.8768 18.9202 24.851 17.6115 24.4104 17.1647C23.7035 16.4468 22.8987 18.3792 22.6185 18.8739C22.193 19.6246 21.6836 20.6305 21.2619 21.4185C19.5415 24.6332 14.7399 35.5618 14.696 38.183ZM5.11174 28.0737L5.22178 27.9025C5.3878 27.5949 5.24108 27.8852 5.31482 27.7299L9.65842 17.6398C9.91257 17.1165 10.1731 16.6829 10.3781 16.2368C11.5513 13.6884 13.3829 10.4326 15.241 8.31929C15.6128 7.897 15.9259 7.62477 16.2841 7.2285C17.1532 6.26779 15.848 2.9517 9.06577 16.345C8.12368 18.2057 7.24665 20.0649 6.34427 22.1556C5.9101 23.1616 5.4767 24.2041 5.09396 25.1724C4.60231 26.4159 3.91777 27.28 5.11174 28.0737ZM42.8959 30.7549C43.7287 30.9374 43.8047 30.509 44.1421 29.9186C46.4442 25.8888 47.3598 21.8042 46.2161 17.0697C45.4287 13.8124 43.5468 10.5623 41.2436 8.54664C40.7845 8.14472 39.2486 6.79264 38.6041 6.5438C37.6919 6.19088 37.4325 7.04036 38.0315 7.48753C38.4725 7.81707 38.8984 8.03877 39.3704 8.40224C45.7286 13.3019 47.4468 22.242 43.2942 29.1875C42.8955 29.8545 42.6316 30.04 42.8959 30.7549Z" fill="url(#paint0_linear_111_9992)"/>
<defs>
<linearGradient id="paint0_linear_111_9992" x1="0" y1="24.5" x2="55" y2="24.5" gradientUnits="userSpaceOnUse">
<stop stop-color="#D133FF"/>
<stop offset="1" stop-color="#15ADBD"/>
</linearGradient>
</defs>
</svg>
