<svg width="26" height="20" viewBox="0 0 26 20" fill="none" xmlns="http://www.w3.org/2000/svg">
<path d="M0 1.57895C0 0.705263 0.705263 0 1.57895 0H18.4211C19.2947 0 20 0.705263 20 1.57895C20 2.45263 19.2947 3.15789 18.4211 3.15789H1.57895C0.705263 3.15789 0 2.45263 0 1.57895ZM18.4211 16.8421H1.57895C0.705263 16.8421 0 17.5474 0 18.4211C0 19.2947 0.705263 20 1.57895 20H18.4211C19.2947 20 20 19.2947 20 18.4211C20 17.5474 19.2947 16.8421 18.4211 16.8421ZM23.6842 8.42105H6.8421C5.96842 8.42105 5.26316 9.12632 5.26316 10C5.26316 10.8737 5.96842 11.5789 6.8421 11.5789H23.6842C24.5579 11.5789 25.2632 10.8737 25.2632 10C25.2632 9.12632 24.5579 8.42105 23.6842 8.42105Z" fill="#122123"/>
</svg>
