<svg width="36" height="36" viewBox="0 0 36 36" fill="none" xmlns="http://www.w3.org/2000/svg">
<rect width="36" height="36" rx="18" fill="#F9FDFD"/>
<path d="M22 24.6667C23.1046 24.6667 24 23.7713 24 22.6667C24 21.5622 23.1046 20.6667 22 20.6667C20.8954 20.6667 20 21.5622 20 22.6667C20 23.7713 20.8954 24.6667 22 24.6667Z" stroke="#122123" stroke-width="2" stroke-linecap="round" stroke-linejoin="round"/>
<path d="M14 20C15.1046 20 16 19.1046 16 18C16 16.8954 15.1046 16 14 16C12.8954 16 12 16.8954 12 18C12 19.1046 12.8954 20 14 20Z" stroke="#122123" stroke-width="2" stroke-linecap="round" stroke-linejoin="round"/>
<path d="M15.7266 19.0066L20.2799 21.6599" stroke="#122123" stroke-width="2" stroke-linecap="round" stroke-linejoin="round"/>
<path d="M22 15.3333C23.1046 15.3333 24 14.4378 24 13.3333C24 12.2287 23.1046 11.3333 22 11.3333C20.8954 11.3333 20 12.2287 20 13.3333C20 14.4378 20.8954 15.3333 22 15.3333Z" stroke="#122123" stroke-width="2" stroke-linecap="round" stroke-linejoin="round"/>
<path d="M20.2732 14.3401L15.7266 16.9934" stroke="#122123" stroke-width="2" stroke-linecap="round" stroke-linejoin="round"/>
</svg>
